<svg width="31" height="30" viewBox="0 0 31 30" fill="none" xmlns="http://www.w3.org/2000/svg">
<path d="M24.1685 21.1488C22.0698 21.1488 20.3624 22.9255 20.3624 25.1092C20.3624 27.293 22.0698 29.0697 24.1685 29.0697C26.2671 29.0697 27.9745 27.293 27.9745 25.1092C27.9745 22.9255 26.2671 21.1488 24.1685 21.1488ZM24.1685 26.6934C23.3289 26.6934 22.646 25.9829 22.646 25.1092C22.646 24.2356 23.3289 23.5251 24.1685 23.5251C25.0081 23.5251 25.6909 24.2356 25.6909 25.1092C25.6909 25.9829 25.0081 26.6934 24.1685 26.6934Z" fill="#4F4F4F"/>
<path d="M30.2821 5.84202C30.0659 5.55411 29.7344 5.38617 29.3831 5.38617H7.04815L6.0205 0.912068C5.89757 0.377433 5.43814 5.42606e-09 4.90986 5.42606e-09H1.14182C0.511173 -6.20316e-05 0 0.531843 0 1.18807C0 1.8443 0.511173 2.3762 1.14182 2.3762H4.0086L7.71952 18.5333C7.84246 19.0684 8.30188 19.4454 8.83016 19.4454H26.6047C27.1295 19.4454 27.587 19.0731 27.713 18.5432L30.4915 6.8598C30.5755 6.50501 30.4983 6.12994 30.2821 5.84202ZM25.7113 17.0692H9.73142L7.5939 7.76244H27.9241L25.7113 17.0692Z" fill="#4F4F4F"/>
<path d="M10.3532 21.1488C8.25452 21.1488 6.54715 22.9255 6.54715 25.1092C6.54715 27.293 8.25458 29.0697 10.3532 29.0697C12.4519 29.0697 14.1593 27.293 14.1593 25.1092C14.1593 22.9255 12.4519 21.1488 10.3532 21.1488ZM10.3532 26.6934C9.51361 26.6934 8.83079 25.9829 8.83079 25.1092C8.83079 24.2356 9.51361 23.5251 10.3532 23.5251C11.1928 23.5251 11.8757 24.2356 11.8757 25.1092C11.8757 25.9829 11.1928 26.6934 10.3532 26.6934Z" fill="#4F4F4F"/>
</svg>
