<svg width="12" height="15" viewBox="0 0 12 15" fill="none" xmlns="http://www.w3.org/2000/svg">
<path d="M11.731 11.4765L9.87777 9.41491C9.50864 9.00597 8.89736 9.0184 8.51538 9.44344L7.58172 10.4817C7.52274 10.4456 7.46168 10.4078 7.39749 10.3677C6.80789 10.0044 6.00093 9.50629 5.15177 8.56107C4.3001 7.61385 3.85192 6.71487 3.52424 6.05863C3.48966 5.9891 3.45653 5.92207 3.42381 5.85842L4.05043 5.16245L4.3585 4.81935C4.74107 4.3937 4.75162 3.71395 4.38336 3.30382L2.53014 1.242C2.16188 0.832446 1.55033 0.844871 1.16776 1.27053L0.645456 1.85483L0.659729 1.87059C0.484595 2.11916 0.338248 2.40584 0.229341 2.715C0.128949 3.00928 0.0664456 3.2901 0.0378657 3.57149C-0.206839 5.82801 0.720198 7.89029 3.23606 10.6888C6.71374 14.5568 9.5163 14.2646 9.6372 14.2503C9.90052 14.2153 10.1529 14.1453 10.4093 14.0346C10.6849 13.9148 10.9424 13.7523 11.1658 13.5579L11.1772 13.5692L11.7063 12.9928C12.0881 12.5673 12.0991 11.8873 11.731 11.4765Z" fill="#FF3000"/>
</svg>
