<svg width="16" height="19" viewBox="0 0 16 19" fill="none" xmlns="http://www.w3.org/2000/svg">
<path d="M15.7567 16.4241L11.8125 12.0453C12.8266 10.7585 13.3823 9.13943 13.3823 7.45389C13.3823 3.51579 10.3806 0.311768 6.69113 0.311768C3.0017 0.311768 0 3.51579 0 7.45389C0 11.392 3.0017 14.596 6.69113 14.596C8.07619 14.596 9.39609 14.1501 10.5246 13.3036L14.4988 17.7156C14.6649 17.8997 14.8883 18.0013 15.1278 18.0013C15.3544 18.0013 15.5694 17.909 15.7326 17.7413C16.0794 17.3852 16.0904 16.7945 15.7567 16.4241ZM6.69113 2.17493C9.4182 2.17493 11.6367 4.54301 11.6367 7.45389C11.6367 10.3648 9.4182 12.7329 6.69113 12.7329C3.96406 12.7329 1.74551 10.3648 1.74551 7.45389C1.74551 4.54301 3.96406 2.17493 6.69113 2.17493Z" fill="white"/>
</svg>
